<svg width="146" height="46" viewBox="0 0 146 46" fill="none" xmlns="http://www.w3.org/2000/svg">
<path d="M4.4947 19.7083C6.97632 17.2267 11.0023 17.2267 13.4839 19.7083C14.3103 20.5356 14.3087 21.8757 13.4818 22.7026C12.6549 23.5295 11.3148 23.531 10.4875 22.7047C9.6603 21.8775 8.3183 21.8775 7.4911 22.7047C6.66473 23.532 6.66625 24.8721 7.49318 25.699C8.32017 26.5251 9.65841 26.5251 10.4854 25.699C11.3125 24.8719 12.6546 24.8722 13.4818 25.699C14.309 26.5262 14.309 27.8682 13.4818 28.6954C11.0004 31.1759 6.97816 31.1759 4.49676 28.6954C2.01544 26.2141 2.01392 22.19 4.4947 19.7083Z" fill="#068FFF"/>
<path d="M19.5054 34.7191C17.0238 37.2007 12.9978 37.2007 10.5162 34.7191C9.68984 33.8919 9.69138 32.5518 10.5183 31.7248C11.3452 30.8979 12.6854 30.8964 13.5126 31.7227C14.3398 32.5499 15.6818 32.5499 16.509 31.7227C17.3354 30.8955 17.3339 29.5554 16.5069 28.7284C15.68 27.9024 14.3417 27.9024 13.5147 28.7284C12.6877 29.5555 11.3455 29.5552 10.5183 28.7285C9.69111 27.9013 9.69112 26.5593 10.5183 25.7321C12.9997 23.2516 17.022 23.2516 19.5034 25.732C21.9847 28.2133 21.9862 32.2374 19.5054 34.7191Z" fill="white"/>
<path d="M22.9575 26.9634C22.9575 30.832 26.0936 33.9681 29.9622 33.9681H35.566C36.3398 33.9681 36.967 33.3409 36.967 32.5672C36.967 31.7935 36.3398 31.1662 35.566 31.1662H29.9622C27.641 31.1662 25.7594 29.2846 25.7594 26.9634C25.7594 24.6422 27.641 22.7606 29.9622 22.7606H35.566C36.3398 22.7606 36.967 22.1333 36.967 21.3596C36.967 20.5859 36.3398 19.9587 35.566 19.9587H29.9622C26.0936 19.9587 22.9575 23.0948 22.9575 26.9634Z" fill="#068FFF"/>
<path d="M64.5194 26.9634C64.5194 30.832 67.6555 33.9681 71.5242 33.9681H77.128C77.9017 33.9681 78.5289 33.3409 78.5289 32.5672C78.5289 31.7935 77.9017 31.1662 77.128 31.1662H71.5242C69.203 31.1662 67.3213 29.2846 67.3213 26.9634C67.3213 24.6422 69.203 22.7606 71.5242 22.7606H77.128C77.9017 22.7606 78.5289 22.1333 78.5289 21.3596C78.5289 20.5859 77.9017 19.9587 77.128 19.9587H71.5242C67.6555 19.9587 64.5194 23.0948 64.5194 26.9634Z" fill="#068FFF"/>
<path d="M138.069 19.9588C134.2 19.9588 131.064 23.0949 131.064 26.9635L131.064 32.5673C131.064 33.341 131.691 33.9683 132.465 33.9683C133.239 33.9683 133.866 33.341 133.866 32.5673L133.866 26.9635C133.866 24.6424 135.748 22.7607 138.069 22.7607C140.39 22.7607 142.272 24.6424 142.272 26.9635L142.272 32.5673C142.272 33.341 142.899 33.9683 143.673 33.9683C144.447 33.9683 145.074 33.341 145.074 32.5673L145.074 26.9635C145.074 23.0949 141.938 19.9588 138.069 19.9588Z" fill="#068FFF"/>
<path d="M46.7742 19.9588C42.9055 19.9588 39.7694 23.0949 39.7694 26.9635L39.7694 32.5673C39.7694 33.341 40.3966 33.9683 41.1704 33.9683C41.9441 33.9683 42.5713 33.341 42.5713 32.5673L42.5713 26.9635C42.5713 24.6424 44.453 22.7607 46.7742 22.7607C49.0953 22.7607 50.977 24.6424 50.977 26.9635L50.977 32.5673C50.977 33.341 51.6043 33.9683 52.378 33.9683C53.1517 33.9683 53.7789 33.341 53.7789 32.5673L53.7789 26.9635C53.7789 23.0949 50.6428 19.9588 46.7742 19.9588Z" fill="#068FFF"/>
<rect x="28.5614" y="25.5621" width="8.40571" height="2.80189" rx="1.40094" fill="#068FFF"/>
<rect x="48.1745" y="25.5621" width="8.40567" height="2.8019" rx="1.40095" transform="rotate(90 48.1745 25.5621)" fill="#068FFF"/>
<path d="M88.3356 19.9588C92.2042 19.9589 95.3405 23.0951 95.3405 26.9637C95.3404 30.8321 92.2041 33.9685 88.3356 33.9686C84.4671 33.9686 81.3309 30.8322 81.3307 26.9637C81.3307 23.0951 84.467 19.9588 88.3356 19.9588ZM88.3356 22.7606C86.0146 22.7606 84.1327 24.6417 84.1325 26.9627C84.1325 29.2839 86.0145 31.1658 88.3356 31.1658C90.6568 31.1658 92.5388 29.2839 92.5388 26.9627C92.5386 24.6417 90.6567 22.7606 88.3356 22.7606Z" fill="#068FFF"/>
<path d="M121.258 19.9588C125.127 19.9589 128.263 23.0952 128.263 26.9637C128.263 30.8321 125.127 33.9685 121.258 33.9686C117.39 33.9686 114.254 30.8322 114.253 26.9637C114.253 23.0951 117.39 19.9588 121.258 19.9588ZM121.257 22.7606C118.936 22.7608 117.055 24.6419 117.055 26.9627C117.055 29.2837 118.936 31.1656 121.257 31.1658C123.578 31.1658 125.46 29.2839 125.46 26.9627C125.46 24.6417 123.578 22.7606 121.257 22.7606Z" fill="#068FFF"/>
<path d="M100.944 26.9634C100.944 29.2846 102.826 31.1662 105.147 31.1662L110.05 31.1662C110.824 31.1662 111.451 31.7935 111.451 32.5672C111.451 33.3409 110.824 33.9681 110.05 33.9681L105.147 33.9681C101.278 33.9681 98.1421 30.832 98.1421 26.9634L98.1421 21.3596C98.1421 20.5859 98.7693 19.9587 99.543 19.9587C100.317 19.9587 100.944 20.5859 100.944 21.3596L100.944 26.9634Z" fill="#068FFF"/>
<g filter="url(#filter0_d_330_106)">
<path d="M59.1319 20C60.5181 20 61.6419 21.1238 61.6419 22.51C61.6419 23.8963 60.5181 25.0201 59.1319 25.0201C57.7456 25.0201 56.6218 23.8963 56.6218 22.51C56.6218 21.1238 57.7456 20 59.1319 20Z" fill="white"/>
</g>
<path d="M59.1319 20C60.5181 20 61.6419 21.1238 61.6419 22.51C61.6419 23.8963 60.5181 25.0201 59.1319 25.0201C57.7456 25.0201 56.6218 23.8963 56.6218 22.51C56.6218 21.1238 57.7456 20 59.1319 20Z" fill="white"/>
<path d="M61.6415 33.5112L61.6415 29.2065C61.6415 27.9263 60.5178 26.8885 59.1315 26.8885C57.7452 26.8885 56.6215 27.9263 56.6215 29.2065L56.6215 32.3522C56.6215 32.9923 57.1834 33.5112 57.8765 33.5112C58.5696 33.5112 59.1315 34.0301 59.1315 34.6701L59.1315 34.8357C59.1315 35.4758 59.6934 35.9947 60.3865 35.9947C61.0796 35.9947 61.6415 35.4758 61.6415 34.8357L61.6415 33.5112Z" fill="white"/>
<defs>
<filter id="filter0_d_330_106" x="36.6218" y="0" width="45.0201" height="45.0201" filterUnits="userSpaceOnUse" color-interpolation-filters="sRGB">
<feFlood flood-opacity="0" result="BackgroundImageFix"/>
<feColorMatrix in="SourceAlpha" type="matrix" values="0 0 0 0 0 0 0 0 0 0 0 0 0 0 0 0 0 0 127 0" result="hardAlpha"/>
<feOffset/>
<feGaussianBlur stdDeviation="10"/>
<feComposite in2="hardAlpha" operator="out"/>
<feColorMatrix type="matrix" values="0 0 0 0 1 0 0 0 0 1 0 0 0 0 1 0 0 0 0.7 0"/>
<feBlend mode="normal" in2="BackgroundImageFix" result="effect1_dropShadow_330_106"/>
<feBlend mode="normal" in="SourceGraphic" in2="effect1_dropShadow_330_106" result="shape"/>
</filter>
</defs>
</svg>
