<svg width="28" height="28" viewBox="0 0 28 28" fill="none" xmlns="http://www.w3.org/2000/svg">
<path d="M14 6.1196e-07C6.26802 9.95562e-07 4.47583e-07 6.26802 -6.11959e-07 14L-1.10153e-06 25.2C-1.16912e-06 26.7464 1.2536 28 2.8 28C4.3464 28 5.6 26.7464 5.6 25.2L5.6 14C5.6 9.36081 9.36081 5.6 14 5.6C18.6392 5.6 22.4 9.36081 22.4 14L22.4 25.2C22.4 26.7464 23.6536 28 25.2 28C26.7464 28 28 26.7464 28 25.2L28 14C28 6.26802 21.732 9.49936e-07 14 6.1196e-07Z" fill="#068FFF"/>
<rect x="16.7989" y="11.1988" width="16.8" height="5.6" rx="2.70391" transform="rotate(90 16.7989 11.1988)" fill="#068FFF"/>
</svg>
