<svg width="37" height="37" viewBox="0 0 37 37" fill="none" xmlns="http://www.w3.org/2000/svg">
<path d="M3.67323 3.6761C8.57469 -1.22536 16.5265 -1.22539 21.4279 3.67605C23.06 5.30999 23.057 7.95687 21.4237 9.59014C19.7905 11.2234 17.1436 11.2264 15.5096 9.59429C13.8758 7.96047 11.2253 7.96048 9.59143 9.5943C7.95926 11.2283 7.96228 13.8751 9.59554 15.5084C11.2289 17.14 13.8721 17.14 15.5055 15.5084C17.1391 13.8748 19.7898 13.8754 21.4237 15.5084C23.0575 17.1422 23.0575 19.7928 21.4237 21.4266C16.5227 26.3258 8.57833 26.3259 3.67731 21.4266C-1.22357 16.5257 -1.22657 8.57769 3.67323 3.6761Z" fill="#068FFF"/>
<path d="M33.3207 33.3239C28.4193 38.2254 20.4675 38.2254 15.5661 33.324C13.9339 31.69 13.937 29.0431 15.5702 27.4099C17.2035 25.7766 19.8504 25.7736 21.4843 27.4057C23.1181 29.0395 25.7687 29.0395 27.4025 27.4057C29.0347 25.7717 29.0317 23.1249 27.3984 21.4916C25.765 19.86 23.1219 19.86 21.4885 21.4916C19.8549 23.1252 17.2041 23.1246 15.5702 21.4916C13.9364 19.8578 13.9364 17.2072 15.5703 15.5734C20.4713 10.6742 28.4156 10.6741 33.3167 15.5734C38.2175 20.4743 38.2205 28.4223 33.3207 33.3239Z" fill="white"/>
</svg>
