<svg width="28" height="28" viewBox="0 0 28 28" fill="none" xmlns="http://www.w3.org/2000/svg">
<path d="M0 13.9997C7.21561e-07 21.7315 6.26786 27.9993 13.9997 27.9993H25.1994C26.7458 27.9993 27.9993 26.7458 27.9993 25.1994C27.9993 23.653 26.7458 22.3995 25.1994 22.3995H13.9997C9.36059 22.3995 5.59987 18.6387 5.59987 13.9997C5.59987 9.36058 9.36059 5.59986 13.9997 5.59986H25.1994C26.7458 5.59986 27.9993 4.34629 27.9993 2.79993C27.9993 1.25357 26.7458 -7.90034e-06 25.1994 -7.90034e-06H13.9997C6.26786 -7.90034e-06 0 6.26786 0 13.9997Z" fill="#068FFF"/>
<rect x="11.2004" y="11.199" width="16.7996" height="5.59987" rx="2.70391" fill="#068FFF"/>
</svg>
