<svg width="10" height="31" viewBox="0 0 10 31" fill="none" xmlns="http://www.w3.org/2000/svg">
<path d="M4.86527 -2.12652e-07C7.55208 -9.52076e-08 9.73016 2.17808 9.73016 4.86489C9.73016 7.55169 7.55208 9.72978 4.86527 9.72977C2.17847 9.72977 0.00038499 7.55169 0.00038499 4.86489C0.00038499 2.17808 2.17847 -3.30097e-07 4.86527 -2.12652e-07Z" fill="white"/>
<path d="M9.72977 26.1865L9.72977 17.8432C9.72977 15.362 7.55169 13.3506 4.86489 13.3506C2.17808 13.3506 1.75841e-07 15.362 3.92752e-07 17.8432L9.25773e-07 23.9403C1.03423e-06 25.1808 1.08904 26.1865 2.43244 26.1865C3.77585 26.1865 4.86489 27.1922 4.86489 28.4328L4.86489 28.7537C4.86489 29.9943 5.95393 31 7.29733 31C8.64073 31 9.72977 29.9943 9.72977 28.7537L9.72977 26.1865Z" fill="white"/>
</svg>
