<svg viewBox="0 0 10 28" fill="none" xmlns="http://www.w3.org/2000/svg">
  <path d="M4.86527 0C7.55208 0 9.73016 2.17808 9.73016 4.86489C9.73016 7.55169 7.55208 9.72977 4.86527 9.72977C2.17847 9.72977 0.00038499 7.55169 0.00038499 4.86489C0.00038499 2.17808 2.17847 0 4.86527 0Z" fill="#068FFF"/>
  <path d="M9.72977 23.1865V14.8432C9.72977 12.362 7.55169 10.3506 4.86489 10.3506C2.17808 10.3506 0 12.362 0 14.8432V20.9403C0 22.1808 1.08904 23.1865 2.43244 23.1865C3.77585 23.1865 4.86489 24.1922 4.86489 25.4328V25.7537C4.86489 26.9943 5.95393 28 7.29733 28C8.64073 28 9.72977 26.9943 9.72977 25.7537V23.1865Z" fill="#068FFF"/>
</svg>
